<?xml version="1.0" encoding="UTF-8" standalone="no"?>
<!DOCTYPE svg PUBLIC "-//W3C//DTD SVG 1.1//EN" "http://www.w3.org/Graphics/SVG/1.1/DTD/svg11.dtd">
<svg width="100%" height="100%" viewBox="0 0 51 51" version="1.1" xmlns="http://www.w3.org/2000/svg" xmlns:xlink="http://www.w3.org/1999/xlink" xml:space="preserve" xmlns:serif="http://www.serif.com/" style="fill-rule:evenodd;clip-rule:evenodd;stroke-linejoin:round;stroke-miterlimit:2;">
    <g transform="matrix(1,0,0,1,-1354.32,-428.251)">
        <g transform="matrix(1,0,0,1,894.001,0)">
            <g transform="matrix(1,0,0,1,-894.001,0)">
                <path d="M1381.86,428.368C1380.25,428.211 1378.62,428.211 1377.01,428.368L1376.67,435.284C1375.34,435.487 1374.04,435.835 1372.79,436.323L1369.04,430.503C1367.56,431.175 1366.15,431.988 1364.83,432.932L1368,439.089C1366.95,439.928 1366,440.88 1365.16,441.928L1359,438.763C1358.06,440.083 1357.25,441.492 1356.57,442.97L1362.39,446.72C1361.91,447.97 1361.56,449.271 1361.35,450.597L1354.44,450.935C1354.28,452.551 1354.28,454.178 1354.44,455.793L1361.35,456.131C1361.56,457.458 1361.91,458.758 1362.39,460.009L1356.57,463.759C1357.25,465.236 1358.06,466.645 1359,467.966L1365.16,464.801C1366,465.848 1366.95,466.8 1368,467.639L1364.83,473.797C1366.15,474.74 1367.56,475.554 1369.04,476.226L1372.79,470.406C1374.04,470.893 1375.34,471.242 1376.67,471.445L1377.01,478.36C1378.62,478.517 1380.25,478.517 1381.86,478.36L1382.2,471.445C1383.53,471.242 1384.83,470.893 1386.08,470.406L1389.83,476.226C1391.31,475.554 1392.72,474.74 1394.04,473.797L1390.87,467.639C1391.92,466.8 1392.87,465.848 1393.71,464.801L1399.87,467.966C1400.81,466.645 1401.62,465.236 1402.3,463.759L1396.48,460.009C1396.96,458.758 1397.31,457.458 1397.52,456.131L1404.43,455.793C1404.59,454.178 1404.59,452.551 1404.43,450.935L1397.52,450.597C1397.31,449.271 1396.96,447.97 1396.48,446.72L1402.3,442.97C1401.62,441.492 1400.81,440.083 1399.87,438.763L1393.71,441.928C1392.87,440.88 1391.92,439.928 1390.87,439.089L1394.04,432.932C1392.72,431.988 1391.31,431.175 1389.83,430.503L1386.08,436.323C1384.83,435.835 1383.53,435.487 1382.2,435.284L1381.86,428.368ZM1379.43,442.861C1385.23,442.861 1389.94,447.568 1389.94,453.364C1389.94,459.161 1385.23,463.867 1379.43,463.867C1373.64,463.867 1368.93,459.161 1368.93,453.364C1368.93,447.568 1373.64,442.861 1379.43,442.861Z" style="fill:rgb(227,149,168);"/>
            </g>
        </g>
    </g>
</svg>
